<svg width="48" height="45" viewBox="0 0 48 45" fill="none" xmlns="http://www.w3.org/2000/svg">
<g filter="url(#filter0_d_57486_14)">
<ellipse cx="24" cy="22.875" rx="21" ry="19.125" fill="#FFEAD4"/>
<path d="M45 22.875C45 27.3386 43.2857 31.6616 40.154 35.0952C37.0223 38.5288 32.6705 40.8566 27.8524 41.6754C23.0344 42.4943 18.0536 41.7526 13.7729 39.5788C9.4922 37.405 6.1812 33.936 4.41346 29.7729L24 22.875H45Z" fill="#FFD4D4"/>
<g filter="url(#filter1_d_57486_14)">
<path d="M6.084 28.48C5.468 28.48 4.984 28.28 4.632 27.88C4.288 27.472 4.116 26.904 4.116 26.176C4.116 25.728 4.176 25.204 4.296 24.604C4.424 23.996 4.584 23.356 4.776 22.684C4.976 22.004 5.192 21.332 5.424 20.668C5.656 20.004 5.88 19.388 6.096 18.82C6.32 18.244 6.516 17.764 6.684 17.38C6.78 17.164 6.916 17.056 7.092 17.056C7.332 17.056 7.452 17.204 7.452 17.5C7.452 17.596 7.408 17.792 7.32 18.088C7.232 18.384 7.116 18.752 6.972 19.192C6.828 19.624 6.672 20.104 6.504 20.632C6.336 21.16 6.164 21.704 5.988 22.264C5.82 22.816 5.664 23.364 5.52 23.908C5.376 24.444 5.26 24.948 5.172 25.42C5.084 25.892 5.04 26.296 5.04 26.632C5.04 26.848 5.096 27.02 5.208 27.148C5.328 27.268 5.488 27.328 5.688 27.328C6.056 27.328 6.424 27.256 6.792 27.112C7.168 26.96 7.528 26.776 7.872 26.56C8.216 26.336 8.528 26.116 8.808 25.9C9.096 25.676 9.34 25.492 9.54 25.348C9.74 25.196 9.88 25.12 9.96 25.12C10.136 25.12 10.224 25.216 10.224 25.408C10.224 25.472 10.16 25.592 10.032 25.768C9.904 25.936 9.732 26.136 9.516 26.368C9.3 26.6 9.048 26.84 8.76 27.088C8.48 27.328 8.184 27.556 7.872 27.772C7.568 27.98 7.26 28.148 6.948 28.276C6.644 28.412 6.356 28.48 6.084 28.48ZM10.2232 28.06C10.0712 28.06 9.93516 28.004 9.81516 27.892C9.69516 27.772 9.63516 27.588 9.63516 27.34C9.63516 27.164 9.65916 26.92 9.70716 26.608C9.75516 26.288 9.81916 25.94 9.89916 25.564C9.97916 25.188 10.0632 24.816 10.1512 24.448C10.2472 24.072 10.3432 23.736 10.4392 23.44C10.5352 23.144 10.6192 22.924 10.6912 22.78C10.7552 22.668 10.8152 22.596 10.8712 22.564C10.9352 22.532 10.9952 22.516 11.0512 22.516C11.1632 22.516 11.2592 22.552 11.3392 22.624C11.4272 22.696 11.4712 22.836 11.4712 23.044C11.4712 23.164 11.4472 23.364 11.3992 23.644C11.3592 23.916 11.3032 24.236 11.2312 24.604C11.1672 24.964 11.0952 25.336 11.0152 25.72C10.9432 26.096 10.8712 26.456 10.7992 26.8C10.7272 27.144 10.6712 27.432 10.6312 27.664C10.5992 27.792 10.5432 27.892 10.4632 27.964C10.3912 28.028 10.3112 28.06 10.2232 28.06ZM11.3992 21.424C11.2152 21.424 11.0392 21.368 10.8712 21.256C10.7112 21.144 10.6312 20.964 10.6312 20.716C10.6312 20.508 10.6792 20.34 10.7752 20.212C10.8792 20.084 10.9992 19.992 11.1352 19.936C11.2792 19.872 11.4032 19.84 11.5072 19.84C11.6112 19.84 11.7272 19.864 11.8552 19.912C11.9912 19.952 12.1072 20.032 12.2032 20.152C12.2992 20.264 12.3472 20.432 12.3472 20.656C12.3472 20.808 12.2952 20.944 12.1912 21.064C12.0872 21.176 11.9592 21.264 11.8072 21.328C11.6632 21.392 11.5272 21.424 11.3992 21.424ZM14.1454 29.068C14.0094 29.068 13.9014 29.02 13.8214 28.924C13.7414 28.828 13.7014 28.668 13.7014 28.444C13.7014 28.044 13.7214 27.632 13.7614 27.208C13.8094 26.776 13.8334 26.376 13.8334 26.008C13.8334 25.168 13.7574 24.476 13.6054 23.932C13.4614 23.38 13.1454 23.008 12.6574 22.816C12.5454 22.776 12.4654 22.732 12.4174 22.684C12.3614 22.636 12.3334 22.56 12.3334 22.456C12.3334 22.344 12.3774 22.252 12.4654 22.18C12.5454 22.108 12.6974 22.072 12.9214 22.072C13.1054 22.072 13.3494 22.08 13.6534 22.096C13.9574 22.112 14.2854 22.128 14.6374 22.144C14.8854 21.256 15.1654 20.52 15.4774 19.936C15.7894 19.352 16.1294 18.892 16.4974 18.556C16.8734 18.22 17.2694 17.98 17.6854 17.836C18.1094 17.692 18.5494 17.62 19.0054 17.62C19.2054 17.62 19.3334 17.648 19.3894 17.704C19.4454 17.752 19.4734 17.828 19.4734 17.932C19.4734 18.06 19.4334 18.196 19.3534 18.34C19.2734 18.476 19.1094 18.564 18.8614 18.604C18.3174 18.7 17.8334 18.876 17.4094 19.132C16.9854 19.388 16.6174 19.76 16.3054 20.248C15.9934 20.728 15.7334 21.36 15.5254 22.144C16.2934 22.128 16.9534 22.088 17.5054 22.024C18.0574 21.952 18.5174 21.876 18.8854 21.796C19.2614 21.708 19.5614 21.636 19.7854 21.58C20.0094 21.516 20.1814 21.484 20.3014 21.484C20.4374 21.484 20.5214 21.52 20.5534 21.592C20.5854 21.664 20.6014 21.74 20.6014 21.82C20.6014 21.972 20.4574 22.12 20.1694 22.264C19.8814 22.4 19.5014 22.524 19.0294 22.636C18.5654 22.74 18.0534 22.824 17.4934 22.888C16.9334 22.952 16.3814 22.984 15.8374 22.984C15.7494 22.984 15.6614 22.984 15.5734 22.984C15.4934 22.984 15.4094 22.984 15.3214 22.984C15.3054 23.04 15.2934 23.1 15.2854 23.164C15.2054 23.628 15.1254 24.12 15.0454 24.64C14.9734 25.152 14.9054 25.656 14.8414 26.152C14.7854 26.64 14.7414 27.084 14.7094 27.484C14.6774 27.884 14.6614 28.204 14.6614 28.444C14.6614 28.644 14.6134 28.796 14.5174 28.9C14.4214 29.012 14.2974 29.068 14.1454 29.068ZM14.4334 22.936C14.2014 22.912 13.9854 22.88 13.7854 22.84C13.8894 22.96 13.9774 23.1 14.0494 23.26C14.1294 23.42 14.1974 23.592 14.2534 23.776C14.3094 23.48 14.3694 23.2 14.4334 22.936ZM19.2464 28.312C18.9424 28.312 18.6904 28.172 18.4904 27.892C18.2984 27.604 18.2024 27.232 18.2024 26.776C18.2024 26.352 18.3064 25.932 18.5144 25.516C18.7304 25.1 19.0144 24.7 19.3664 24.316C19.7184 23.932 20.1024 23.58 20.5184 23.26C20.9344 22.932 21.3504 22.648 21.7664 22.408C22.1904 22.168 22.5784 21.98 22.9304 21.844C23.2824 21.708 23.5624 21.64 23.7704 21.64C23.8824 21.64 23.9744 21.664 24.0464 21.712C24.1184 21.752 24.1544 21.828 24.1544 21.94C24.1544 22.012 24.1264 22.08 24.0704 22.144C24.0784 22.144 24.0864 22.144 24.0944 22.144C24.2704 22.144 24.3584 22.248 24.3584 22.456C24.3584 22.528 24.3304 22.676 24.2744 22.9C24.2184 23.116 24.1544 23.388 24.0824 23.716C24.0104 24.044 23.9464 24.408 23.8904 24.808C23.8344 25.2 23.8064 25.6 23.8064 26.008C23.8064 26.352 23.9384 26.524 24.2024 26.524C24.4984 26.524 24.7984 26.456 25.1024 26.32C25.4064 26.184 25.7024 26.02 25.9904 25.828C26.2784 25.628 26.5424 25.432 26.7824 25.24C27.0224 25.04 27.2264 24.872 27.3944 24.736C27.5624 24.6 27.6824 24.532 27.7544 24.532C27.8184 24.532 27.8744 24.552 27.9224 24.592C27.9704 24.632 27.9944 24.696 27.9944 24.784C27.9944 24.864 27.9144 25.008 27.7544 25.216C27.5944 25.424 27.3824 25.66 27.1184 25.924C26.8544 26.188 26.5584 26.444 26.2304 26.692C25.9024 26.94 25.5664 27.144 25.2224 27.304C24.8784 27.464 24.5504 27.544 24.2384 27.544C23.9984 27.544 23.7784 27.472 23.5784 27.328C23.3864 27.176 23.2304 26.92 23.1104 26.56C22.9984 26.2 22.9424 25.704 22.9424 25.072V24.772C22.5504 25.42 22.1384 26.012 21.7064 26.548C21.2824 27.084 20.8584 27.512 20.4344 27.832C20.0184 28.152 19.6224 28.312 19.2464 28.312ZM23.5424 22.504C23.5024 22.52 23.4464 22.544 23.3744 22.576C23.0064 22.744 22.6224 22.952 22.2224 23.2C21.8304 23.448 21.4464 23.724 21.0704 24.028C20.7024 24.332 20.3704 24.648 20.0744 24.976C19.7784 25.304 19.5424 25.636 19.3664 25.972C19.1904 26.308 19.1024 26.636 19.1024 26.956C19.1024 27.06 19.1224 27.14 19.1624 27.196C19.2104 27.252 19.2904 27.28 19.4024 27.28C19.5624 27.28 19.7704 27.18 20.0264 26.98C20.2824 26.772 20.5624 26.5 20.8664 26.164C21.1784 25.828 21.4904 25.456 21.8024 25.048C22.1144 24.64 22.4104 24.228 22.6904 23.812C22.9784 23.396 23.2264 23.012 23.4344 22.66C23.4664 22.604 23.5024 22.552 23.5424 22.504ZM28.243 29.068C28.107 29.068 27.999 29.02 27.919 28.924C27.839 28.828 27.799 28.668 27.799 28.444C27.799 28.044 27.819 27.632 27.859 27.208C27.907 26.776 27.931 26.376 27.931 26.008C27.931 25.168 27.855 24.476 27.703 23.932C27.559 23.38 27.243 23.008 26.755 22.816C26.643 22.776 26.563 22.732 26.515 22.684C26.459 22.636 26.431 22.56 26.431 22.456C26.431 22.344 26.475 22.252 26.563 22.18C26.643 22.108 26.795 22.072 27.019 22.072C27.203 22.072 27.447 22.08 27.751 22.096C28.055 22.112 28.383 22.128 28.735 22.144C28.983 21.256 29.263 20.52 29.575 19.936C29.887 19.352 30.227 18.892 30.595 18.556C30.971 18.22 31.367 17.98 31.783 17.836C32.207 17.692 32.647 17.62 33.103 17.62C33.303 17.62 33.431 17.648 33.487 17.704C33.543 17.752 33.571 17.828 33.571 17.932C33.571 18.06 33.531 18.196 33.451 18.34C33.371 18.476 33.207 18.564 32.959 18.604C32.415 18.7 31.931 18.876 31.507 19.132C31.083 19.388 30.715 19.76 30.403 20.248C30.091 20.728 29.831 21.36 29.623 22.144C30.391 22.128 31.051 22.088 31.603 22.024C32.155 21.952 32.615 21.876 32.983 21.796C33.359 21.708 33.659 21.636 33.883 21.58C34.107 21.516 34.279 21.484 34.399 21.484C34.535 21.484 34.619 21.52 34.651 21.592C34.683 21.664 34.699 21.74 34.699 21.82C34.699 21.972 34.555 22.12 34.267 22.264C33.979 22.4 33.599 22.524 33.127 22.636C32.663 22.74 32.151 22.824 31.591 22.888C31.031 22.952 30.479 22.984 29.935 22.984C29.847 22.984 29.759 22.984 29.671 22.984C29.591 22.984 29.507 22.984 29.419 22.984C29.403 23.04 29.391 23.1 29.383 23.164C29.303 23.628 29.223 24.12 29.143 24.64C29.071 25.152 29.003 25.656 28.939 26.152C28.883 26.64 28.839 27.084 28.807 27.484C28.775 27.884 28.759 28.204 28.759 28.444C28.759 28.644 28.711 28.796 28.615 28.9C28.519 29.012 28.395 29.068 28.243 29.068ZM28.531 22.936C28.299 22.912 28.083 22.88 27.883 22.84C27.987 22.96 28.075 23.1 28.147 23.26C28.227 23.42 28.295 23.592 28.351 23.776C28.407 23.48 28.467 23.2 28.531 22.936ZM33.3441 28.312C33.0401 28.312 32.7881 28.172 32.5881 27.892C32.3961 27.604 32.3001 27.232 32.3001 26.776C32.3001 26.352 32.4041 25.932 32.6121 25.516C32.8281 25.1 33.1121 24.7 33.4641 24.316C33.8161 23.932 34.2001 23.58 34.6161 23.26C35.0321 22.932 35.4481 22.648 35.8641 22.408C36.2881 22.168 36.6761 21.98 37.0281 21.844C37.3801 21.708 37.6601 21.64 37.8681 21.64C37.9801 21.64 38.0721 21.664 38.1441 21.712C38.2161 21.752 38.2521 21.828 38.2521 21.94C38.2521 22.012 38.2241 22.08 38.1681 22.144C38.1761 22.144 38.1841 22.144 38.1921 22.144C38.3681 22.144 38.4561 22.248 38.4561 22.456C38.4561 22.528 38.4281 22.676 38.3721 22.9C38.3161 23.116 38.2521 23.388 38.1801 23.716C38.1081 24.044 38.0441 24.408 37.9881 24.808C37.9321 25.2 37.9041 25.6 37.9041 26.008C37.9041 26.352 38.0361 26.524 38.3001 26.524C38.5961 26.524 38.8961 26.456 39.2001 26.32C39.5041 26.184 39.8001 26.02 40.0881 25.828C40.3761 25.628 40.6401 25.432 40.8801 25.24C41.1201 25.04 41.3241 24.872 41.4921 24.736C41.6601 24.6 41.7801 24.532 41.8521 24.532C41.9161 24.532 41.9721 24.552 42.0201 24.592C42.0681 24.632 42.0921 24.696 42.0921 24.784C42.0921 24.864 42.0121 25.008 41.8521 25.216C41.6921 25.424 41.4801 25.66 41.2161 25.924C40.9521 26.188 40.6561 26.444 40.3281 26.692C40.0001 26.94 39.6641 27.144 39.3201 27.304C38.9761 27.464 38.6481 27.544 38.3361 27.544C38.0961 27.544 37.8761 27.472 37.6761 27.328C37.4841 27.176 37.3281 26.92 37.2081 26.56C37.0961 26.2 37.0401 25.704 37.0401 25.072V24.772C36.6481 25.42 36.2361 26.012 35.8041 26.548C35.3801 27.084 34.9561 27.512 34.5321 27.832C34.1161 28.152 33.7201 28.312 33.3441 28.312ZM37.6401 22.504C37.6001 22.52 37.5441 22.544 37.4721 22.576C37.1041 22.744 36.7201 22.952 36.3201 23.2C35.9281 23.448 35.5441 23.724 35.1681 24.028C34.8001 24.332 34.4681 24.648 34.1721 24.976C33.8761 25.304 33.6401 25.636 33.4641 25.972C33.2881 26.308 33.2001 26.636 33.2001 26.956C33.2001 27.06 33.2201 27.14 33.2601 27.196C33.3081 27.252 33.3881 27.28 33.5001 27.28C33.6601 27.28 33.8681 27.18 34.1241 26.98C34.3801 26.772 34.6601 26.5 34.9641 26.164C35.2761 25.828 35.5881 25.456 35.9001 25.048C36.2121 24.64 36.5081 24.228 36.7881 23.812C37.0761 23.396 37.3241 23.012 37.5321 22.66C37.5641 22.604 37.6001 22.552 37.6401 22.504Z" fill="black"/>
</g>
</g>
<defs>
<filter id="filter0_d_57486_14" x="0" y="0.75" width="48" height="44.25" filterUnits="userSpaceOnUse" color-interpolation-filters="sRGB">
<feFlood flood-opacity="0" result="BackgroundImageFix"/>
<feColorMatrix in="SourceAlpha" type="matrix" values="0 0 0 0 0 0 0 0 0 0 0 0 0 0 0 0 0 0 127 0" result="hardAlpha"/>
<feOffset/>
<feGaussianBlur stdDeviation="1.5"/>
<feComposite in2="hardAlpha" operator="out"/>
<feColorMatrix type="matrix" values="0 0 0 0 0 0 0 0 0 0 0 0 0 0 0 0 0 0 0.25 0"/>
<feBlend mode="normal" in2="BackgroundImageFix" result="effect1_dropShadow_57486_14"/>
<feBlend mode="normal" in="SourceGraphic" in2="effect1_dropShadow_57486_14" result="shape"/>
</filter>
<filter id="filter1_d_57486_14" x="3.11597" y="17.0559" width="41.9761" height="17.0122" filterUnits="userSpaceOnUse" color-interpolation-filters="sRGB">
<feFlood flood-opacity="0" result="BackgroundImageFix"/>
<feColorMatrix in="SourceAlpha" type="matrix" values="0 0 0 0 0 0 0 0 0 0 0 0 0 0 0 0 0 0 127 0" result="hardAlpha"/>
<feOffset dx="1" dy="3"/>
<feGaussianBlur stdDeviation="1"/>
<feComposite in2="hardAlpha" operator="out"/>
<feColorMatrix type="matrix" values="0 0 0 0 0 0 0 0 0 0 0 0 0 0 0 0 0 0 0.25 0"/>
<feBlend mode="normal" in2="BackgroundImageFix" result="effect1_dropShadow_57486_14"/>
<feBlend mode="normal" in="SourceGraphic" in2="effect1_dropShadow_57486_14" result="shape"/>
</filter>
</defs>
</svg>
